<?xml version="1.0" encoding="UTF-8"?>
<svg xmlns="http://www.w3.org/2000/svg" viewBox="0 0 800 600" width="800" height="600">
  <style>
    .node { cursor: pointer; }
    .node:hover circle { r: 10; }
    .node text { font-family: sans-serif; font-size: 10px; }
    .connection { stroke-opacity: 0.6; transition: stroke-opacity 0.2s, stroke-width 0.2s; cursor: help; }
    .connection:hover { stroke-opacity: 1.0; stroke-width: 4; }
    .connection.highlighted { stroke-opacity: 1.0; stroke-width: 4; }
    .connection.dimmed { stroke-opacity: 0.15; }
    .legend text { font-family: sans-serif; font-size: 11px; }
    .title { font-family: sans-serif; font-size: 16px; font-weight: bold; }
    .state { fill: #e8e8e8; stroke: #999; stroke-width: 1; }
    .county { fill: none; stroke: #bbb; stroke-width: 0.5; stroke-dasharray: 2,2; }
    .state-label { font-family: sans-serif; font-size: 12px; fill: #666; }
    #tooltip { position: fixed; background: rgba(0,0,0,0.75); color: #fff; padding: 8px 12px; border-radius: 4px; font-size: 12px; z-index: 1000; white-space: pre-wrap; max-width: 250px; pointer-events: none; display: none; }
  </style>
  <script><![CDATA[
    var tooltip = null;
    function showTooltip(e, text) {
      if (!tooltip) { tooltip = document.createElement("div"); tooltip.id = "tooltip"; document.body.appendChild(tooltip); }
      tooltip.innerHTML = text.split("\\n").join("<br>");
      tooltip.style.left = (e.clientX + 10) + "px";
      tooltip.style.top = (e.clientY + 10) + "px";
      tooltip.style.display = "block";
    }
    function hideTooltip() { if (tooltip) tooltip.style.display = "none"; }
    function highlightNode(callsign) {
      // Dim all connections
      var connections = document.querySelectorAll(".connection");
      connections.forEach(function(conn) {
        conn.classList.add("dimmed");
        conn.classList.remove("highlighted");
      });
      // Highlight connections for this node
      var nodeConns = document.querySelectorAll(".connection[data-from='" + callsign + "'], .connection[data-to='" + callsign + "']");
      nodeConns.forEach(function(conn) {
        conn.classList.remove("dimmed");
        conn.classList.add("highlighted");
      });
    }
    function unhighlightAll() {
      var connections = document.querySelectorAll(".connection");
      connections.forEach(function(conn) {
        conn.classList.remove("dimmed", "highlighted");
      });
    }
  ]]></script>
  <rect width="100%" height="100%" fill="#f5f5f5"/>
  <defs>
    <clipPath id="map-clip">
      <rect x="50" y="50" width="700" height="500"/>
    </clipPath>
  </defs>
  <!-- State boundaries -->
  <g class="boundaries" clip-path="url(#map-clip)">
    <path class="state" d="M 60.4,-26.1 L 66.2,-28.9 L 72.0,-37.0 L 81.8,-37.0 L 85.6,-34.3 L 93.4,-12.5 L 97.3,-7.0 L 101.2,-12.5 L 101.2,-20.7 L 107.0,-28.9 L 109.0,-50.7 L 112.9,-58.9 L 120.6,-61.6 L 134.3,-50.7 L 144.0,-53.4 L 145.9,-56.1 L 144.0,-61.6 L 130.4,-72.5 L 128.4,-83.4 L 136.2,-99.8 L 155.6,-121.6 L 177.0,-135.2 L 184.8,-138.0 L 188.7,-140.7 L 192.6,-148.9 L 188.7,-162.5 L 215.9,-187.0 L 219.8,-195.2 L 219.8,-203.4 L 212.0,-208.9 L 208.1,-211.6 L 210.1,-228.0 L 214.0,-230.7 L 210.1,-238.9 L 219.8,-247.0 L 221.8,-249.8 L 223.7,-255.2 L 219.8,-266.1 L 215.9,-268.9 L 215.9,-274.3 L 223.7,-296.1 L 227.6,-298.9 L 231.5,-301.6 L 233.4,-315.2 L 256.8,-331.6 L 258.7,-339.8 L 266.5,-397.0 L 268.4,-408.0 L 416.2,-612.5 L 422.0,-615.2 L 451.2,-607.0 L 455.1,-604.3 L 451.2,-579.8 L 453.1,-563.4 L 457.0,-558.0 L 482.3,-541.6 L 511.5,-555.2 L 519.3,-558.0 L 534.8,-558.0 L 544.5,-566.1 L 558.1,-571.6 L 567.9,-574.3 L 573.7,-568.9 L 583.4,-571.6 L 585.4,-579.8 L 591.2,-588.0 L 600.9,-590.7 L 610.6,-588.0 L 620.4,-582.5 L 628.1,-574.3 L 639.8,-568.9 L 661.2,-549.8 L 667.0,-544.3 L 670.9,-533.4 L 678.7,-528.0 L 684.5,-519.8 L 696.2,-511.6 L 702.0,-206.1 L 705.9,-195.2 L 698.1,-184.3 L 704.0,-170.7 L 696.2,-154.3 L 696.2,-138.0 L 698.1,-135.2 L 705.9,-129.8 L 707.9,-129.8 L 711.8,-132.5 L 719.5,-121.6 L 735.1,-113.4 L 746.8,-110.7 L 766.2,-110.7 L 770.1,-108.0 L 772.0,-99.8 L 770.1,-88.9 L 758.4,-78.0 L 760.4,-69.8 L 770.1,-50.7 L 770.1,-39.8 L 762.3,-26.1 L 762.3,-18.0 L 770.1,-9.8 L 783.7,9.3 L 791.5,14.8 L 799.3,9.3 L 799.3,1.1 L 805.1,-1.6 L 818.7,6.6 L 814.8,6.6 L 812.9,9.3 L 814.8,12.0 L 820.6,12.0 L 824.5,23.0 L 828.4,28.4 L 834.3,36.6 L 832.3,42.0 L 834.3,44.8 L 838.1,50.2 L 845.9,63.9 L 844.0,66.6 L 842.0,74.8 L 838.1,74.8 L 830.4,69.3 L 828.4,74.8 L 832.3,77.5 L 832.3,83.0 L 830.4,85.7 L 826.5,85.7 L 814.8,77.5 L 814.8,83.0 L 822.6,91.1 L 824.5,104.8 L 826.5,93.9 L 828.4,93.9 L 832.3,96.6 L 834.3,96.6 L 832.3,93.9 L 836.2,93.9 L 832.3,88.4 L 836.2,85.7 L 840.1,91.1 L 840.1,104.8 L 845.9,102.0 L 845.9,96.6 L 842.0,83.0 L 845.9,85.7 L 851.8,93.9 L 855.6,93.9 L 857.6,104.8 L 847.9,118.4 L 840.1,118.4 L 836.2,126.6 L 836.2,123.9 L 832.3,132.0 L 820.6,145.7 L 814.8,148.4 L 814.8,153.9 L 810.9,153.9 L 803.1,148.4 L 801.2,151.1 L 803.1,156.6 L 799.3,156.6 L 789.5,148.4 L 793.4,143.0 L 793.4,137.5 L 789.5,134.8 L 783.7,137.5 L 785.6,140.2 L 783.7,140.2 L 775.9,137.5 L 781.8,148.4 L 779.8,153.9 L 781.8,156.6 L 775.9,162.0 L 774.0,164.8 L 770.1,148.4 L 764.3,148.4 L 766.2,159.3 L 768.1,162.0 L 766.2,164.8 L 754.5,162.0 L 756.5,159.3 L 754.5,156.6 L 752.6,156.6 L 750.6,159.3 L 748.7,151.1 L 746.8,153.9 L 739.0,159.3 L 742.9,159.3 L 742.9,162.0 L 742.9,178.4 L 742.9,181.1 L 737.0,183.9 L 729.3,183.9 L 729.3,175.7 L 725.4,173.0 L 721.5,178.4 L 715.6,192.0 L 711.8,192.0 L 707.9,186.6 L 707.9,181.1 L 709.8,167.5 L 709.8,164.8 L 700.1,181.1 L 700.1,183.9 L 698.1,181.1 L 702.0,167.5 L 702.0,164.8 L 696.2,170.2 L 692.3,170.2 L 688.4,178.4 L 684.5,181.1 L 688.4,192.0 L 688.4,197.5 L 686.5,197.5 L 680.6,194.8 L 682.6,200.2 L 678.7,219.3 L 674.8,216.6 L 674.8,208.4 L 678.7,194.8 L 672.9,200.2 L 670.9,216.6 L 667.0,211.1 L 665.1,192.0 L 663.1,192.0 L 661.2,200.2 L 655.4,200.2 L 653.4,200.2 L 663.1,205.7 L 665.1,216.6 L 665.1,219.3 L 663.1,224.8 L 661.2,224.8 L 659.3,219.3 L 655.4,222.0 L 655.4,224.8 L 647.6,238.4 L 643.7,233.0 L 645.6,224.8 L 641.8,227.5 L 639.8,222.0 L 637.9,208.4 L 637.9,197.5 L 632.0,194.8 L 630.1,192.0 L 628.1,192.0 L 628.1,197.5 L 628.1,203.0 L 624.3,203.0 L 622.3,200.2 L 622.3,186.6 L 620.4,183.9 L 616.5,192.0 L 616.5,200.2 L 610.6,194.8 L 608.7,186.6 L 599.0,183.9 L 599.0,189.3 L 604.8,192.0 L 606.8,194.8 L 602.9,200.2 L 606.8,205.7 L 597.0,205.7 L 591.2,200.2 L 589.3,205.7 L 583.4,213.9 L 585.4,216.6 L 579.5,219.3 L 577.6,216.6 L 575.6,213.9 L 577.6,200.2 L 575.6,194.8 L 565.9,194.8 L 569.8,203.0 L 569.8,211.1 L 571.8,213.9 L 569.8,222.0 L 567.9,224.8 L 565.9,222.0 L 564.0,211.1 L 562.0,216.6 L 556.2,216.6 L 548.4,216.6 L 554.3,227.5 L 550.4,241.1 L 550.4,243.9 L 556.2,249.3 L 558.1,252.0 L 556.2,254.8 L 552.3,254.8 L 556.2,257.5 L 560.1,260.2 L 554.3,263.0 L 536.8,246.6 L 527.0,249.3 L 517.3,238.4 L 511.5,238.4 L 505.6,241.1 L 499.8,243.9 L 503.7,227.5 L 505.6,224.8 L 511.5,230.2 L 513.4,227.5 L 513.4,224.8 L 509.5,219.3 L 515.4,216.6 L 523.1,219.3 L 523.1,216.6 L 519.3,211.1 L 519.3,205.7 L 509.5,213.9 L 503.7,222.0 L 501.8,222.0 L 499.8,219.3 L 501.8,211.1 L 507.6,203.0 L 509.5,194.8 L 515.4,181.1 L 513.4,178.4 L 503.7,175.7 L 497.9,197.5 L 501.8,200.2 L 494.0,205.7 L 492.0,203.0 L 494.0,200.2 L 492.0,197.5 L 480.4,208.4 L 466.8,213.9 L 470.6,216.6 L 470.6,224.8 L 476.5,238.4 L 474.5,241.1 L 464.8,249.3 L 457.0,265.7 L 451.2,284.8 L 447.3,290.2 L 447.3,303.9 L 455.1,303.9 L 451.2,309.3 L 447.3,317.5 L 441.5,317.5 L 437.6,328.4 L 431.8,325.7 L 429.8,331.1 L 427.9,331.1 L 425.9,336.6 L 427.9,342.0 L 418.1,347.5 L 414.3,347.5 L 414.3,339.3 L 422.0,325.7 L 418.1,325.7 L 404.5,344.8 L 404.5,342.0 L 406.5,333.9 L 404.5,331.1 L 392.9,336.6 L 396.8,325.7 L 392.9,323.0 L 396.8,314.8 L 394.8,312.0 L 390.9,317.5 L 387.0,320.2 L 389.0,328.4 L 381.2,331.1 L 379.3,333.9 L 369.5,369.3 L 365.6,374.8 L 365.6,366.6 L 361.8,355.7 L 359.8,355.7 L 357.9,374.8 L 355.9,369.3 L 357.9,366.6 L 354.0,363.9 L 357.9,350.2 L 354.0,344.8 L 361.8,328.4 L 361.8,323.0 L 350.1,342.0 L 352.0,347.5 L 350.1,353.0 L 350.1,355.7 L 350.1,361.1 L 352.0,372.0 L 350.1,380.2 L 350.1,369.3 L 344.3,372.0 L 336.5,366.6 L 334.5,363.9 L 338.4,355.7 L 336.5,353.0 L 338.4,350.2 L 344.3,350.2 L 338.4,344.8 L 336.5,339.3 L 340.4,328.4 L 344.3,320.2 L 342.3,320.2 L 336.5,325.7 L 317.0,358.4 L 322.9,363.9 L 322.9,372.0 L 319.0,380.2 L 324.8,372.0 L 326.8,369.3 L 328.7,372.0 L 322.9,388.4 L 320.9,393.9 L 317.0,393.9 L 315.1,385.7 L 317.0,383.0 L 315.1,380.2 L 307.3,333.9 L 309.3,325.7 L 315.1,314.8 L 315.1,312.0 L 313.1,312.0 L 305.4,317.5 L 293.7,333.9 L 293.7,339.3 L 295.6,339.3 L 299.5,339.3 L 303.4,336.6 L 305.4,339.3 L 309.3,374.8 L 313.1,393.9 L 311.2,402.0 L 307.3,404.8 L 303.4,410.2 L 301.5,407.5 L 301.5,399.3 L 297.6,396.6 L 297.6,391.1 L 297.6,385.7 L 301.5,377.5 L 297.6,369.3 L 297.6,363.9 L 293.7,363.9 L 289.8,366.6 L 293.7,372.0 L 293.7,374.8 L 293.7,383.0 L 287.9,385.7 L 287.9,383.0 L 280.1,393.9 L 276.2,396.6 L 274.3,402.0 L 272.3,402.0 L 284.0,374.8 L 284.0,369.3 L 282.0,372.0 L 276.2,383.0 L 272.3,396.6 L 264.5,399.3 L 278.1,377.5 L 280.1,369.3 L 276.2,369.3 L 268.4,374.8 L 266.5,374.8 L 270.4,372.0 L 272.3,366.6 L 268.4,366.6 L 260.6,377.5 L 249.0,380.2 L 235.4,393.9 L 229.5,404.8 L 223.7,410.2 L 225.6,421.1 L 219.8,423.9 L 214.0,423.9 L 214.0,426.6 L 229.5,426.6 L 231.5,434.8 L 231.5,448.4 L 219.8,451.1 L 221.8,448.4 L 217.9,448.4 L 210.1,456.6 L 210.1,451.1 L 204.3,453.9 L 198.4,462.0 L 198.4,473.0 L 200.4,478.4 L 206.2,475.7 L 208.1,475.7 L 208.1,478.4 L 198.4,486.6 L 196.5,492.0 L 192.6,494.8 L 182.9,505.7 L 169.3,508.4 L 159.5,519.3 L 157.6,533.0 L 159.5,538.4 L 153.7,546.6 L 157.6,549.3 L 151.8,554.8 L 140.1,576.6 L 132.3,568.4 L 128.4,568.4 L 126.5,579.3 L 109.0,557.5 L 112.9,541.1 L 110.9,533.0 L 101.2,527.5 L 83.7,500.2 L 79.8,494.8 L 83.7,478.4 L 81.8,467.5 L 83.7,448.4 L 60.4,-26.1 Z">
      <title>Maine</title>
    </path>
    <path class="state" d="M -23.2,53.0 L -21.3,42.0 L -13.5,25.7 L -9.6,14.8 L -3.8,1.1 L -11.6,-7.0 L 0.1,-9.8 L 7.9,-20.7 L 15.6,-23.4 L 35.1,-12.5 L 44.8,-12.5 L 48.7,-12.5 L 60.4,-26.1 L 83.7,448.4 L 81.8,467.5 L 83.7,478.4 L 79.8,494.8 L 83.7,500.2 L 101.2,527.5 L 110.9,533.0 L 112.9,541.1 L 109.0,557.5 L 126.5,579.3 L 124.5,584.8 L 132.3,582.0 L 132.3,587.5 L 118.7,614.8 L 114.8,625.7 L 112.9,633.9 L 105.1,636.6 L 89.5,631.1 L 72.0,642.0 L 62.3,650.2 L 48.7,650.2 L 44.8,655.7 L 37.0,669.3 L 27.3,672.0 L 17.6,683.0 L -209.9,674.8 L -209.9,666.6 L -225.5,647.5 L -227.4,633.9 L -223.5,625.7 L -219.6,606.6 L -211.9,603.9 L -209.9,598.4 L -209.9,587.5 L -206.0,571.1 L -206.0,554.8 L -206.0,543.9 L -202.1,538.4 L -204.1,533.0 L -196.3,519.3 L -194.4,448.4 L -182.7,434.8 L -178.8,404.8 L -159.4,388.4 L -155.5,377.5 L -153.5,361.1 L -138.0,336.6 L -138.0,333.9 L -141.9,328.4 L -128.2,301.1 L -126.3,252.0 L -122.4,241.1 L -114.6,235.7 L -91.3,233.0 L -77.7,219.3 L -56.3,205.7 L -50.5,197.5 L -40.7,186.6 L -40.7,178.4 L -38.8,173.0 L -33.0,170.2 L -31.0,167.5 L -42.7,134.8 L -48.5,126.6 L -46.6,118.4 L -42.7,110.2 L -23.2,83.0 L -23.2,77.5 L -29.1,63.9 L -27.1,55.7 L -23.2,53.0 Z">
      <title>New Hampshire</title>
    </path>
  </g>
  <text x="400.0" y="25" class="title" text-anchor="middle">Packet Radio Network Map</text>
  <g class="connections">
    <line x1="424.3" y1="186.4" x2="618.8" y2="186.4" stroke="#2196F3" stroke-width="2" class="connection" data-from="AB1KI" data-to="W1DTX" onmousemove="showTooltip(event, 'AB1KI ↔ W1DTX\\n145.01 MHz');" onmouseleave="hideTooltip();">
    </line>
    <line x1="424.3" y1="186.4" x2="310.9" y2="379.5" stroke="#2196F3" stroke-width="2" class="connection" data-from="AB1KI" data-to="KS1R-15" onmousemove="showTooltip(event, 'AB1KI ↔ KS1R-15\\n145.01 MHz');" onmouseleave="hideTooltip();">
    </line>
    <line x1="197.5" y1="413.6" x2="181.2" y2="402.3" stroke="#FF9800" stroke-width="2" class="connection" data-from="KC1JMH-15" data-to="WS1EC" onmousemove="showTooltip(event, 'KC1JMH-15 ↔ WS1EC\\n433.3 MHz');" onmouseleave="hideTooltip();">
    </line>
    <line x1="424.3" y1="186.4" x2="343.3" y2="265.9" stroke="#FF9800" stroke-width="2" class="connection" data-from="AB1KI" data-to="N1REX-15" onmousemove="showTooltip(event, 'AB1KI ↔ N1REX-15\\n433.1 MHz');" onmouseleave="hideTooltip();">
    </line>
    <line x1="391.9" y1="300.0" x2="343.3" y2="265.9" stroke="#FF9800" stroke-width="2" class="connection" data-from="K1NYY-15" data-to="N1REX-15" onmousemove="showTooltip(event, 'K1NYY-15 ↔ N1REX-15\\n433.1 MHz');" onmouseleave="hideTooltip();">
    </line>
    <line x1="310.9" y1="265.9" x2="343.3" y2="265.9" stroke="#FF9800" stroke-width="2" class="connection" data-from="N1QFY-15" data-to="N1REX-15" onmousemove="showTooltip(event, 'N1QFY-15 ↔ N1REX-15\\n433.1 MHz');" onmouseleave="hideTooltip();">
    </line>
    <line x1="310.9" y1="265.9" x2="278.5" y2="345.5" stroke="#2196F3" stroke-width="2" class="connection" data-from="N1QFY-15" data-to="NG1P-4" onmousemove="showTooltip(event, 'N1QFY-15 ↔ NG1P-4\\n145.07 MHz');" onmouseleave="hideTooltip();">
    </line>
    <line x1="424.3" y1="186.4" x2="440.5" y2="300.0" stroke="#FF9800" stroke-width="2" class="connection" data-from="AB1KI" data-to="KX1EMA-15" onmousemove="showTooltip(event, 'AB1KI ↔ KX1EMA-15\\n433.1 MHz');" onmouseleave="hideTooltip();">
    </line>
    <line x1="440.5" y1="300.0" x2="456.7" y2="209.1" stroke="#FF9800" stroke-width="2" class="connection" data-from="KX1EMA-15" data-to="W1EMA-15" onmousemove="showTooltip(event, 'KX1EMA-15 ↔ W1EMA-15\\n433.3 MHz');" onmouseleave="hideTooltip();">
    </line>
    <line x1="440.5" y1="300.0" x2="408.1" y2="334.1" stroke="#FF9800" stroke-width="2" class="connection" data-from="KX1EMA-15" data-to="WD1O-15" onmousemove="showTooltip(event, 'KX1EMA-15 ↔ WD1O-15\\n433.3 MHz');" onmouseleave="hideTooltip();">
    </line>
    <line x1="391.9" y1="300.0" x2="440.5" y2="300.0" stroke="#FF9800" stroke-width="2" class="connection" data-from="K1NYY-15" data-to="KX1EMA-15" onmousemove="showTooltip(event, 'K1NYY-15 ↔ KX1EMA-15\\n433.3 MHz');" onmouseleave="hideTooltip();">
    </line>
    <line x1="197.5" y1="413.6" x2="310.9" y2="379.5" stroke="#FF9800" stroke-width="2" class="connection" data-from="KC1JMH-15" data-to="KS1R-15" onmousemove="showTooltip(event, 'KC1JMH-15 ↔ KS1R-15\\n433.3 MHz');" onmouseleave="hideTooltip();">
    </line>
    <line x1="197.5" y1="413.6" x2="310.9" y2="265.9" stroke="#FF9800" stroke-width="2" class="connection" data-from="KC1JMH-15" data-to="N1QFY-15" onmousemove="showTooltip(event, 'KC1JMH-15 ↔ N1QFY-15\\n433.3 MHz');" onmouseleave="hideTooltip();">
    </line>
    <line x1="391.9" y1="300.0" x2="197.5" y2="413.6" stroke="#FF9800" stroke-width="2" class="connection" data-from="K1NYY-15" data-to="KC1JMH-15" onmousemove="showTooltip(event, 'K1NYY-15 ↔ KC1JMH-15\\n433.3 MHz');" onmouseleave="hideTooltip();">
    </line>
    <line x1="391.9" y1="300.0" x2="310.9" y2="265.9" stroke="#FF9800" stroke-width="2" class="connection" data-from="K1NYY-15" data-to="N1QFY-15" onmousemove="showTooltip(event, 'K1NYY-15 ↔ N1QFY-15\\n433.3 MHz');" onmouseleave="hideTooltip();">
    </line>
    <line x1="424.3" y1="186.4" x2="456.7" y2="209.1" stroke="#FF9800" stroke-width="2" class="connection" data-from="AB1KI" data-to="W1EMA-15" onmousemove="showTooltip(event, 'AB1KI ↔ W1EMA-15\\n433.1 MHz');" onmouseleave="hideTooltip();">
    </line>
    <line x1="391.9" y1="300.0" x2="456.7" y2="209.1" stroke="#FF9800" stroke-width="2" class="connection" data-from="K1NYY-15" data-to="W1EMA-15" onmousemove="showTooltip(event, 'K1NYY-15 ↔ W1EMA-15\\n433.1 MHz');" onmouseleave="hideTooltip();">
    </line>
    <line x1="310.9" y1="379.5" x2="310.9" y2="265.9" stroke="#FF9800" stroke-width="2" class="connection" data-from="KS1R-15" data-to="N1QFY-15" onmousemove="showTooltip(event, 'KS1R-15 ↔ N1QFY-15\\n433.3 MHz');" onmouseleave="hideTooltip();">
    </line>
    <line x1="310.9" y1="379.5" x2="440.5" y2="300.0" stroke="#FF9800" stroke-width="2" class="connection" data-from="KS1R-15" data-to="KX1EMA-15" onmousemove="showTooltip(event, 'KS1R-15 ↔ KX1EMA-15\\n433.3 MHz');" onmouseleave="hideTooltip();">
    </line>
    <line x1="310.9" y1="379.5" x2="456.7" y2="209.1" stroke="#2196F3" stroke-width="2" class="connection" data-from="KS1R-15" data-to="W1EMA-15" onmousemove="showTooltip(event, 'KS1R-15 ↔ W1EMA-15\\n145.01 MHz');" onmouseleave="hideTooltip();">
    </line>
    <line x1="310.9" y1="379.5" x2="343.3" y2="265.9" stroke="#FF9800" stroke-width="2" class="connection" data-from="KS1R-15" data-to="N1REX-15" onmousemove="showTooltip(event, 'KS1R-15 ↔ N1REX-15\\n433.3 MHz');" onmouseleave="hideTooltip();">
    </line>
    <line x1="391.9" y1="300.0" x2="310.9" y2="379.5" stroke="#FF9800" stroke-width="2" class="connection" data-from="K1NYY-15" data-to="KS1R-15" onmousemove="showTooltip(event, 'K1NYY-15 ↔ KS1R-15\\n433.3 MHz');" onmouseleave="hideTooltip();">
    </line>
    <line x1="391.9" y1="300.0" x2="408.1" y2="334.1" stroke="#FF9800" stroke-width="2" class="connection" data-from="K1NYY-15" data-to="WD1O-15" onmousemove="showTooltip(event, 'K1NYY-15 ↔ WD1O-15\\n433.3 MHz');" onmouseleave="hideTooltip();">
    </line>
    <line x1="424.3" y1="186.4" x2="391.9" y2="300.0" stroke="#FF9800" stroke-width="2" class="connection" data-from="AB1KI" data-to="K1NYY-15" onmousemove="showTooltip(event, 'AB1KI ↔ K1NYY-15\\n433.3 MHz');" onmouseleave="hideTooltip();">
    </line>
    <line x1="391.9" y1="300.0" x2="359.5" y2="322.7" stroke="#2196F3" stroke-width="2" class="connection" data-from="K1NYY-15" data-to="KY2D" onmousemove="showTooltip(event, 'K1NYY-15 ↔ KY2D\\n144.99 MHz');" onmouseleave="hideTooltip();">
    </line>
  </g>
  <g class="nodes">
    <g class="node" transform="translate(424.3,186.4)" onmouseenter="highlightNode('AB1KI');" onmousemove="showTooltip(event, 'AB1KI (FN54JM)\\nType: BPQ\\nFrequencies: 145.01 MHz, 433.1 MHz\\nRF Neighbors: 2\\nIP Neighbors: 0');" onmouseleave="unhighlightAll(); hideTooltip();">
      <circle r="6" fill="#2196F3" stroke="#333" stroke-width="1.5">
      </circle>
      <text x="0" y="18" text-anchor="middle">AB1KI</text>
    </g>
    <g class="node" transform="translate(181.2,402.3)" onmouseenter="highlightNode('WS1EC');" onmousemove="showTooltip(event, 'WS1EC (FN43SR)\\nType: BPQ\\nFrequencies: 433.3 MHz, 145.05 MHz\\nRF Neighbors: 1\\nIP Neighbors: 0');" onmouseleave="unhighlightAll(); hideTooltip();">
      <circle r="6" fill="#FF9800" stroke="#333" stroke-width="1.5">
      </circle>
      <text x="0" y="18" text-anchor="middle">WS1EC</text>
    </g>
    <g class="node" transform="translate(343.3,265.9)" onmouseenter="highlightNode('N1REX-15');" onmousemove="showTooltip(event, 'N1REX-15 (FN54EF)\\nType: BPQ\\nFrequencies: 433.1 MHz, 145.09 MHz\\nRF Neighbors: 3\\nIP Neighbors: 0');" onmouseleave="unhighlightAll(); hideTooltip();">
      <circle r="6" fill="#FF9800" stroke="#333" stroke-width="1.5">
      </circle>
      <text x="0" y="18" text-anchor="middle">N1REX</text>
    </g>
    <g class="node" transform="translate(278.5,345.5)" onmouseenter="highlightNode('NG1P-4');" onmousemove="showTooltip(event, 'NG1P-4 (FN53aw)\\nType: BPQ\\nFrequencies: 145.07 MHz\\nRF Neighbors: 1\\nIP Neighbors: 1');" onmouseleave="unhighlightAll(); hideTooltip();">
      <circle r="6" fill="#2196F3" stroke="#333" stroke-width="1.5">
      </circle>
      <text x="0" y="18" text-anchor="middle">NG1P</text>
    </g>
    <g class="node" transform="translate(440.5,300.0)" onmouseenter="highlightNode('KX1EMA-15');" onmousemove="showTooltip(event, 'KX1EMA-15 (FN54KC)\\nType: BPQ\\nFrequencies: 433.3 MHz, 145.03 MHz\\nRF Neighbors: 3\\nIP Neighbors: 1');" onmouseleave="unhighlightAll(); hideTooltip();">
      <circle r="6" fill="#FF9800" stroke="#333" stroke-width="1.5">
      </circle>
      <text x="0" y="18" text-anchor="middle">KX1EMA</text>
    </g>
    <g class="node" transform="translate(618.8,186.4)" onmouseenter="highlightNode('W1DTX');" onmousemove="showTooltip(event, 'W1DTX (FN54vm)\\nType: Unknown\\nFrequencies: 145.01 MHz\\nRF Neighbors: 1 (from network)\\nIP Neighbors: 0 (from network)');" onmouseleave="unhighlightAll(); hideTooltip();">
      <circle r="6" fill="#2196F3" stroke="#333" stroke-width="1.5">
      </circle>
      <text x="0" y="18" text-anchor="middle">W1DTX</text>
    </g>
    <g class="node" transform="translate(197.5,413.6)" onmouseenter="highlightNode('KC1JMH-15');" onmousemove="showTooltip(event, 'KC1JMH-15 (FN43TQ)\\nType: BPQ\\nFrequencies: 433.3 MHz, 144.93 MHz\\nRF Neighbors: 4\\nIP Neighbors: 1');" onmouseleave="unhighlightAll(); hideTooltip();">
      <circle r="6" fill="#FF9800" stroke="#333" stroke-width="1.5">
      </circle>
      <text x="0" y="18" text-anchor="middle">KC1JMH</text>
    </g>
    <g class="node" transform="translate(310.9,265.9)" onmouseenter="highlightNode('N1QFY-15');" onmousemove="showTooltip(event, 'N1QFY-15 (FN54CF)\\nType: BPQ\\nFrequencies: 433.3 MHz, 145.07 MHz\\nRF Neighbors: 4\\nIP Neighbors: 0');" onmouseleave="unhighlightAll(); hideTooltip();">
      <circle r="6" fill="#FF9800" stroke="#333" stroke-width="1.5">
      </circle>
      <text x="0" y="18" text-anchor="middle">N1QFY</text>
    </g>
    <g class="node" transform="translate(456.7,209.1)" onmouseenter="highlightNode('W1EMA-15');" onmousemove="showTooltip(event, 'W1EMA-15 (FN54lk)\\nType: BPQ\\nFrequencies: 433.1 MHz, 144.97 MHz\\nRF Neighbors: 2\\nIP Neighbors: 1');" onmouseleave="unhighlightAll(); hideTooltip();">
      <circle r="6" fill="#FF9800" stroke="#333" stroke-width="1.5">
      </circle>
      <text x="0" y="18" text-anchor="middle">W1EMA</text>
    </g>
    <g class="node" transform="translate(310.9,379.5)" onmouseenter="highlightNode('KS1R-15');" onmousemove="showTooltip(event, 'KS1R-15 (FN53CT)\\nType: BPQ\\nFrequencies: 145.01 MHz, 433.3 MHz, 223.6 MHz\\nRF Neighbors: 6\\nIP Neighbors: 2');" onmouseleave="unhighlightAll(); hideTooltip();">
      <circle r="6" fill="#2196F3" stroke="#333" stroke-width="1.5">
      </circle>
      <text x="0" y="18" text-anchor="middle">KS1R</text>
    </g>
    <g class="node" transform="translate(408.1,334.1)" onmouseenter="highlightNode('WD1O-15');" onmousemove="showTooltip(event, 'WD1O-15 (FN53IX)\\nType: BPQ\\nFrequencies: 145.05 MHz, 433.3 MHz\\nHF Access: VARA, ARDOP, Pactor Link\\nRF Neighbors: 2\\nIP Neighbors: 1');" onmouseleave="unhighlightAll(); hideTooltip();">
      <circle r="6" fill="#2196F3" stroke="#333" stroke-width="1.5">
      </circle>
      <text x="0" y="18" text-anchor="middle">WD1O</text>
    </g>
    <g class="node" transform="translate(391.9,300.0)" onmouseenter="highlightNode('K1NYY-15');" onmousemove="showTooltip(event, 'K1NYY-15 (FN54HC)\\nType: BPQ\\nFrequencies: 433.3 MHz, 144.99 MHz\\nRF Neighbors: 7\\nIP Neighbors: 0');" onmouseleave="unhighlightAll(); hideTooltip();">
      <circle r="6" fill="#FF9800" stroke="#333" stroke-width="1.5">
      </circle>
      <text x="0" y="18" text-anchor="middle">K1NYY</text>
    </g>
    <g class="node" transform="translate(359.5,322.7)" onmouseenter="highlightNode('KY2D');" onmousemove="showTooltip(event, 'KY2D (FN54fa)\\nType: BPQ\\nFrequencies: 144.99 MHz\\nRF Neighbors: 1 (from network)\\nIP Neighbors: 0 (from network)');" onmouseleave="unhighlightAll(); hideTooltip();">
      <circle r="6" fill="#2196F3" stroke="#333" stroke-width="1.5">
      </circle>
      <text x="0" y="18" text-anchor="middle">KY2D</text>
    </g>
  </g>
  <g class="legend" transform="translate(650,460)">
    <rect x="-5" y="-15" width="140" height="130" fill="white" stroke="#ccc" rx="5"/>
    <text y="0" font-weight="bold">Band Colors</text>
    <line x1="0" y1="20" x2="20" y2="20" stroke="#2196F3" stroke-width="3"/>
    <text x="25" y="24">2m (144-148 MHz)</text>
    <line x1="0" y1="40" x2="20" y2="40" stroke="#FF9800" stroke-width="3"/>
    <text x="25" y="44">70cm (420-450 MHz)</text>
    <line x1="0" y1="60" x2="20" y2="60" stroke="#9C27B0" stroke-width="3"/>
    <text x="25" y="64">1.25m (222-225 MHz)</text>
    <line x1="0" y1="80" x2="20" y2="80" stroke="#4CAF50" stroke-width="3"/>
    <text x="25" y="84">6m (50-54 MHz)</text>
    <line x1="0" y1="100" x2="20" y2="100" stroke="#888888" stroke-width="3"/>
    <text x="25" y="104">Other/Unknown</text>
  </g>
  <text x="10" y="590" font-family="sans-serif" font-size="10" fill="#666">
    Nodes: 13 | Connections: 25 | Generated by nodemap-html.py
  </text>
</svg>